<?xml version="1.0" encoding="utf-8"?>
<!-- Generator: Adobe Illustrator 27.0.0, SVG Export Plug-In . SVG Version: 6.00 Build 0)  -->
<svg version="1.1" id="Layer_2_00000161616142169330531490000004331063814466897543_"
	 xmlns="http://www.w3.org/2000/svg" xmlns:xlink="http://www.w3.org/1999/xlink" x="0px" y="0px" viewBox="0 0 64 64"
	 style="enable-background:new 0 0 64 64;" xml:space="preserve">
<style type="text/css">
	.st0{fill:#1F2028;}
	.st1{fill:#FFFFFF;}
</style>
<path class="st0" d="M32,64L32,64C14.3,64,0,49.7,0,32v0C0,14.3,14.3,0,32,0h0c17.7,0,32,14.3,32,32v0C64,49.7,49.7,64,32,64z"/>
<g>
	<path class="st1" d="M23.7,49.5c-0.1,0-0.2-0.1-0.3-0.2c-0.1-0.1-0.1-0.3-0.1-0.8c0-2.6,0.6-5.9,1.7-10.1c0.5-2.1,1.5-5.5,2.9-10.2
		l0.8-2.6l0.1-0.2c-1.7,0.1-3.4,0.3-4.7,0.6c-1.3,0.2-3,0.5-4.9,0.8c-2.8,3.5-4.9,6.2-6.4,7.9c-1.4,1.7-2.6,2.9-3.4,3.5
		c-0.7,0.6-1.2,0.8-1.7,0.8c-0.2,0-0.3-0.1-0.6-0.2c-0.1-0.1-0.2-0.2-0.2-0.5c0-0.1,0-0.2,0.1-0.2C7,37.9,7,37.9,7.2,37.9
		c0.1,0,0.2,0,0.2,0.1s0.1,0.1,0.1,0.2l0,0C8,38.1,8.6,37.7,9.3,37c0.8-0.7,1.8-2,3.4-3.8c0.6-0.7,1.7-2,2.9-3.7
		c1.4-1.7,2.1-2.6,2.1-2.6l0,0c-0.1,0-0.9,0.2-2.3,0.6c-1.4,0.3-2.8,0.7-4.1,1.2c-1.4,0.5-2.3,0.6-2.4,0.6c-0.3,0-0.5-0.1-0.5-0.3
		c0-0.1,0.1-0.3,0.3-0.5c0.1-0.1,0.5-0.2,0.8-0.5c0.3-0.1,0.7-0.3,0.9-0.5c0.2-0.1,0.6-0.2,0.6-0.2c0.2,0,0.3,0.1,0.3,0.3v0.4l0,0
		c0.1,0,0.6-0.1,1.5-0.5c1.1-0.3,1.7-0.5,2.2-0.6c0.5-0.1,1.2-0.3,2.3-0.6c0.7-0.1,1.1-0.2,1.1-0.2c2.3-3,3.8-4.9,4.5-5.6
		c3.1-3.8,5.5-5.8,7.2-5.9c0.2,0,0.5,0.1,0.7,0.2c0.2,0.1,0.3,0.3,0.5,0.6c0.2,0.2,0.1,0.6,0.1,0.9c0,1.4-0.6,4.1-1.8,8.4
		c0.3,0,0.6,0,0.7,0c0.7-0.1,2.8-0.1,6.1-0.2c1.5,0,2.6,0,3.1-0.1h0.2c0.1,0,0.2,0,0.2,0s0.1,0,0.1,0.1v0.1v0.1
		c0,0.1-0.1,0.2-0.3,0.3c-0.2,0.1-1.7,0.1-4.7,0.2c-3.1,0.1-5,0.2-5.8,0.2l-0.7,2.5c-0.3,0.9-0.8,2.6-1.5,5
		c-0.3,1.2-0.7,2.4-1.1,3.5c-1.2,4-1.8,7.5-2.1,10.2c0,0.5-0.1,0.8-0.1,0.9l0,0c0,0,0.2-0.5,0.5-1.5c0.3-0.9,0.5-1.7,0.6-2.1
		c0-0.2,0.1-0.5,0.1-0.5c0.1-0.1,0.1-0.1,0.2-0.1c0.2,0,0.3,0.2,0.3,0.6c0,0.2-0.1,0.8-0.2,1.4c-0.2,0.7-0.3,1.4-0.6,2.1
		s-0.3,1.2-0.6,1.5C24.1,49.3,23.9,49.5,23.7,49.5z M19.6,25.9c3-0.6,5.9-0.9,8.7-1.2c0.3,0,0.5,0,0.5-0.1c0-0.1,0.2-0.8,0.6-2.1
		c0.8-3.2,1.2-5.4,1.2-6.4c0-0.3,0-0.6-0.1-0.7c-0.1-0.1-0.2-0.1-0.3-0.1c-0.5,0-1.2,0.3-2,0.9s-1.7,1.4-2.6,2.4
		C24,20.3,22,22.7,19.6,25.9z"/>
	<path class="st1" d="M41.4,45.7c-0.1,0-0.2,0-0.3-0.1c-0.1-0.1-0.1-0.1-0.2-0.2c-0.1-0.1-0.1-0.2-0.1-0.3c0-0.6,0.3-1.4,1.2-2.3
		c0.7-1.1,1.7-2,2.8-3c0.3-0.2,0.5-0.5,0.5-0.5s0-0.1-0.1-0.3c-0.5-0.6-1.2-1.2-2.4-1.7c-0.9-0.3-1.8-0.7-2.8-0.9
		c-1.2-0.3-2.4-0.8-3.4-1.2c-1.8-0.9-2.6-2.2-2.6-3.8c0-1.4,0.6-3,1.8-4.9c0.9-1.4,2-2.6,3.2-3.8c2.8-2.9,6-5,9.6-6.4
		c1.7-0.7,3.5-1.2,5-1.4c0.5,0,0.8-0.1,1.2-0.1c0.3,0,0.7,0,0.9,0c0.7,0.1,1.1,0.3,1.2,0.7c0.1,0.2,0.2,0.5,0.2,0.6s0,0.3-0.1,0.5
		c-0.1,0.1-0.2,0.2-0.3,0.2c-0.1,0-0.2-0.1-0.3-0.2c-0.1-0.1-0.1-0.2-0.1-0.3c0-0.1,0-0.2,0-0.5c0-0.1-0.2-0.2-0.7-0.3h-0.6
		c-0.9,0-2,0.1-3.2,0.5c-1.2,0.3-2.4,0.7-3.7,1.2c-3.2,1.4-6.2,3.4-8.7,6c-3.2,3.4-4.9,6-4.9,7.9c0,1.4,0.8,2.4,2.4,3.1
		c1.1,0.5,2.2,0.9,3.4,1.2c0.8,0.2,1.5,0.5,2.3,0.8c1.5,0.6,2.6,1.2,3.1,2c0.1,0.1,0.1,0.2,0.1,0.2s0.2-0.1,0.7-0.5
		c0.7-0.5,1.2-0.8,1.5-1.1c0.3-0.2,0.6-0.3,0.7-0.3c0.2,0,0.3,0.1,0.3,0.2c0,0.1,0,0.2-0.1,0.3c-0.1,0.1-0.2,0.2-0.3,0.2
		c-0.7,0.5-1.5,0.9-2.4,1.7v0.5c0,0.6-0.2,1.2-0.5,1.8c-0.2,0.5-0.5,0.8-0.7,1.2c-0.2,0.3-0.7,0.8-1.2,1.2
		C42.6,45.3,41.8,45.7,41.4,45.7z M41.7,45c0.1,0,0.3-0.2,0.8-0.6c0.5-0.3,0.8-0.8,1.2-1.2c1.1-1.2,1.5-2.1,1.7-3.1
		c-0.2,0.2-0.7,0.6-1.2,1.2c-0.6,0.7-1.2,1.2-1.7,2c-0.6,0.7-0.8,1.2-0.8,1.4C41.4,44.9,41.5,45,41.7,45z"/>
</g>
</svg>
